<?xml version="1.0" encoding="iso-8859-1"?>
<!-- Generator: Adobe Illustrator 19.1.0, SVG Export Plug-In . SVG Version: 6.00 Build 0)  -->
<svg version="1.1" id="Capa_1" xmlns="http://www.w3.org/2000/svg" xmlns:xlink="http://www.w3.org/1999/xlink" x="0px" y="0px"
	 viewBox="0 0 64.082 64.082" style="enable-background:new 0 0 64.082 64.082;" xml:space="preserve">
<g>
	<path d="M32.041,0C19.537,0,9.364,10.173,9.364,22.678c0,3.871,0.755,7.183,2.244,9.841c4.333,7.739,18.834,29.123,19.449,30.029
		l1.041,1.534l1.032-1.541c0.146-0.217,14.625-21.842,18.987-29.312c1.702-2.914,2.601-6.562,2.601-10.552
		C54.718,10.173,44.545,0,32.041,0z M49.958,31.97c-3.644,6.239-14.473,22.538-17.873,27.635
		c-3.479-5.157-14.679-21.848-18.295-28.307c-1.278-2.281-1.925-5.182-1.925-8.62c0-11.126,9.051-20.178,20.177-20.178
		s20.177,9.052,20.177,20.178C52.218,26.225,51.436,29.438,49.958,31.97z"/>
	<path d="M32.041,13.941c-5.239,0-9.501,4.262-9.501,9.501s4.262,9.502,9.501,9.502s9.501-4.263,9.501-9.502
		S37.28,13.941,32.041,13.941z M32.041,30.444c-3.861,0-7.001-3.141-7.001-7.002c0-3.86,3.141-7.001,7.001-7.001
		s7.001,3.141,7.001,7.001C39.042,27.304,35.902,30.444,32.041,30.444z"/>
</g>
<g>
</g>
<g>
</g>
<g>
</g>
<g>
</g>
<g>
</g>
<g>
</g>
<g>
</g>
<g>
</g>
<g>
</g>
<g>
</g>
<g>
</g>
<g>
</g>
<g>
</g>
<g>
</g>
<g>
</g>
</svg>
