<?xml version="1.0" encoding="utf-8"?>
<!-- Svg Vector Icons : http://www.onlinewebfonts.com/icon -->
<!DOCTYPE svg PUBLIC "-//W3C//DTD SVG 1.1//EN" "http://www.w3.org/Graphics/SVG/1.1/DTD/svg11.dtd">
<svg version="1.1" xmlns="http://www.w3.org/2000/svg" xmlns:xlink="http://www.w3.org/1999/xlink" x="0px" y="0px" viewBox="0 0 256 256" enable-background="new 0 0 256 256" xml:space="preserve">
<metadata> Svg Vector Icons : http://www.onlinewebfonts.com/icon </metadata>
<g><g><g><path fill="#000000" d="M51.4,27.9c-8.1,0.8-16.5,5.7-26.5,15.7c-6,6-9.4,11.3-11.7,18.7c-3.2,10-3.7,18.1-2.4,37.2c1.7,24.5,4.4,40.6,10.2,60.4c7.4,25.5,13.8,37,28.9,52c6.8,6.8,14,12.4,18.8,14.8c3.9,1.9,5.9,1.9,13.4,0c8.3-2.1,9.1-2.2,19.4-0.8c15.2,1.9,20.9,2.3,30.9,2c9.8-0.3,13.7-0.9,21.3-3.4c16.6-5.5,30.8-17.2,42.6-35.3c3.7-5.7,8.6-15.1,11-21.3l1.7-4.4l3.4-1.1c12.2-3.9,21.9-11.2,27.8-21.1c4.6-7.6,6.7-18.7,5.8-30.2c-2-25.2-13.9-42.1-33.1-47.2c-4.7-1.2-15-1.7-21.4-0.9c-15.3,1.9-26.6,6.9-35.5,16c-7.5,7.5-11.6,16-12.1,25.2l-0.3,4.4l-7.2,0c-8,0-13.2,0.8-18.7,2.8c-7.2,2.6-12.3,5.8-17.1,10.6c-5.4,5.5-8.5,10.7-11.7,19.4c-0.3,0.7-0.6,0.4-2-2.3c-3.9-7.5-9.2-14.3-17.5-22.9c-5.5-5.7-8.4-9.2-11.1-13.6c-2.2-3.6-6-11.2-7.8-16c-1.9-5-1.7-5.8,1.1-4.3c5.1,2.9,15,1.9,18.4-1.8c0.5-0.6,1.9-1.5,3.1-2.1c2-1,5-3.9,5-4.8c0-0.2,0.9-0.9,2-1.6c2.2-1.4,4.1-3.8,4.9-6.4c0.3-0.9,0.9-1.9,1.2-2.3c1.1-0.9,1.6-2.1,2-4.8c0.7-4.4-1.3-10.1-5.1-14.3c-2.4-2.5-13.1-10.9-17.4-13.5C61.3,28.3,57,27.4,51.4,27.9z M59.9,38.5c2.8,1.4,14.9,10.7,16.6,12.8c0.7,0.9,1.6,2.5,1.9,3.4c0.6,1.8,0.6,1.8-0.9,3.2c-1,1.1-1.4,1.9-1.4,3c0,2.3-0.4,3-1.7,3c-0.6,0-1.9,0.4-2.7,1c-1.2,0.7-1.6,1.4-1.8,2.8c-0.3,2-1.2,2.7-3.3,2.7c-1.5,0-2.9,1.1-3.7,2.9c-0.5,1.2-0.8,1.3-3,1.3c-2.8,0-3.3-0.3-3.8-1.7c-0.4-1.4-2.2-2.9-3.5-3c-2.2-0.2-2.7,0-4.3,1.3c-0.8,0.7-2.6,1.8-4,2.4c-4.1,1.8-5.9,4.9-5.2,8.9c0.6,2.9,4.1,11.8,6.9,17.4c4.7,9.4,8,14.1,15.7,22c11.3,11.7,16,18.5,21.5,31.7c3,7.2,4.3,8.8,7.1,8.8c3.3,0,4-1.4,5.6-9.9c1.2-6.5,2.4-10.1,4.9-15.1c4.8-9.3,12-14.9,23.2-18.1c3.3-0.9,4.6-1,15.4-1c12.8,0,13.3-0.1,14.3-2.5c0.5-1.2,0.5-2-0.2-5.1c-2.3-10.5,3.6-22.3,14.8-29.9c7.3-4.9,15.5-7.5,26.6-8.5c13-1.1,21.9,1.5,29.2,8.8c7.6,7.6,11.7,18.6,12.3,33.3c0.5,11.9-1.8,19.6-8.1,27.2c-4.6,5.6-14.7,11.2-23.8,13.2c-2.1,0.5-3.6,2.5-5.4,7.4c-0.9,2.5-3.1,7.7-5.1,11.5c-6.9,13.9-15.8,24.9-26.3,32.9c-4.4,3.3-13.3,7.9-18.3,9.4c-11,3.3-23.2,3.5-45.7,0.6c-11.7-1.5-15.5-1.3-23.8,0.7l-6.1,1.5l-3.2-1.8c-6.6-4-17.6-14.3-23.7-22.3c-6.4-8.4-9.3-14.1-13.3-25.7c-7.8-23-11.5-41-13.4-66.6c-1.2-16.6-1-27.7,0.9-35.2c1-4,4.5-10.6,7.3-13.9c6.2-7.3,16.6-14.8,22.1-16C53.2,36.9,57.8,37.4,59.9,38.5z"/></g></g></g>
</svg>