<svg xmlns="http://www.w3.org/2000/svg" width="128" height="128" viewBox="0 0 24 24"><g fill-rule="evenodd"><path d="M13.681 1.5C18.285 1.5 22 5.156 22 9.644c0 2.099-.7 3.492-2.042 4.875a1.668 1.668 0 0 0-.478 1.16c0 .134.017.27.05.4l.932 3.653a.671.671 0 0 1-.48.82l-7.872 1.93a.653.653 0 0 1-.78-.46l-.704-2.417a1.657 1.657 0 0 0-1.588-1.199H6.017a.663.663 0 0 1-.655-.67v-2.35a1.67 1.67 0 0 0-1.056-1.557l-.885-.347a.677.677 0 0 1-.26-1.065l1.802-2.12c.26-.306.39-.686.41-1.062C5.588 4.936 9.217 1.5 13.68 1.5ZM23 9.644C23 4.584 18.818.5 13.681.5 8.7.5 4.618 4.34 4.374 9.185a.774.774 0 0 1-.173.465L2.4 11.77c-.74.87-.411 2.224.657 2.643l.885.347a.67.67 0 0 1 .42.626v2.35c0 .917.736 1.67 1.656 1.67h3.021c.286 0 .544.192.628.479l.704 2.416a1.653 1.653 0 0 0 1.978 1.152l7.871-1.93a1.671 1.671 0 0 0 1.212-2.038l-.931-3.653a.623.623 0 0 1-.02-.154c0-.165.069-.332.195-.462C22.17 13.676 23 12.041 23 9.644Z"/><path d="M11 7.5a3.5 3.5 0 1 1 5.5 2.873V11a1.5 1.5 0 0 1-1.5 1.5h-1a1.5 1.5 0 0 1-1.5-1.5v-.627A3.496 3.496 0 0 1 11 7.5ZM14.5 5a2.5 2.5 0 0 0-1.25 4.666.5.5 0 0 1 .25.433V11a.5.5 0 0 0 .5.5h1a.5.5 0 0 0 .5-.5v-.901a.5.5 0 0 1 .25-.433A2.5 2.5 0 0 0 14.5 5ZM16 14.5a.5.5 0 0 0-.5-.5h-2a.5.5 0 0 0 0 1h2a.5.5 0 0 0 .5-.5Z"/></g></svg>